<svg xmlns="http://www.w3.org/2000/svg" width="1373" height="839" fill="none" viewBox="0 0 1373 839"><g style="mix-blend-mode:luminosity"><path fill="#000" d="M306.664 0.0147705C282.761 0.465088 259.64 8.83636 239.197 20.8156C215.084 34.9357 193.198 53.2987 171.642 70.9123C166.253 75.3083 160.955 79.8243 155.595 84.248C154.181 85.4531 152.766 86.5974 151.35 87.7711C149.424 89.3361 148.37 91.2924 148.791 93.5513C149.333 96.2901 150.898 98.549 154.06 98.9107C157.072 99.2724 160.082 99.5419 163.092 99.8427C163.153 99.8741 163.212 99.8741 163.304 99.8741C170.559 100.596 177.754 100.717 184.98 99.4514C185.731 99.3315 186.454 99.2724 187.115 99.3019C191.12 99.4219 193.076 102.251 191.42 106.738C190.457 109.325 189.734 112.036 188.65 114.564C183.743 125.885 179.017 137.294 173.75 148.463C166.131 164.661 158.696 180.464 147.045 194.164C146.956 194.254 146.864 194.374 146.715 194.525C146.504 194.765 146.294 195.036 146.052 195.278C110.437 236.522 59.9806 262.472 27.0159 306.096C13.3184 324.249 0.372134 344.208 0.012258 367.631C-0.080018 374.314 0.342599 381.087 1.48682 387.652C3.80295 401.288 8.40935 414.203 15.1234 426.367C22.0773 438.95 30.3877 450.48 39.9918 461.137C42.76 464.207 45.198 467.52 46.5544 471.494C48.0585 475.829 48.9315 480.073 45.5597 484.108C44.2641 485.643 43.334 487.479 42.3079 489.225C40.0508 493.171 40.5325 497.988 43.9338 500.996C47.217 503.857 50.6478 506.658 54.3813 508.886C88.9719 529.508 129.854 543.266 168.632 553.592C176.276 555.638 183.202 549.738 182.99 541.579C182.689 530.019 173.207 521.98 163.723 516.923C152.766 511.111 140.602 508.373 128.802 504.82C125.581 503.857 122.269 503.286 118.987 502.532C118.987 502.473 118.956 502.441 118.956 502.382C118.897 502.172 118.867 501.93 118.807 501.72C120.041 500.937 121.305 500.184 122.54 499.402C143.704 485.702 166.102 473.149 186.151 457.857C187.477 456.864 188.351 456.591 189.885 456.953C202.137 459.904 214.392 462.823 226.674 465.713L226.886 465.743L231.04 466.435C233.511 474.535 235.986 482.631 238.463 490.729C240.334 496.849 242.288 502.973 244.221 509.052C247.888 520.583 250.263 532.671 257.848 542.469C259.852 545.056 262.274 547.481 265.352 548.594C269.56 550.115 274.041 548.937 278.304 548.35C282.58 547.76 286.9 547.5 291.189 546.907C297.091 546.095 301.576 542.934 304.468 537.635C307.207 532.669 307.146 527.37 306.544 521.95C305.972 516.593 303.383 512.226 299.588 508.585C294.742 503.888 288.873 500.815 282.399 498.981C281.103 498.588 280.651 498.047 280.622 496.751C280.592 493.171 280.411 489.587 280.321 486.005C280.321 468.725 279.721 451.322 278.817 434.074C276.92 397.645 281.166 388.645 281.797 388.312C282.008 408.875 283.663 427.661 284.656 436.089C286.553 452.378 289.565 468.843 293.057 484.619C294.502 491.182 296.248 497.744 301.033 502.864C303.442 505.483 305.913 507.981 310.067 507.681C315.395 507.289 320.723 507.348 326.051 507.11C327.647 507.048 329.303 506.808 330.838 506.355C342.188 503.194 344.176 488.081 339.237 479.985C335.233 473.42 328.941 469.87 321.657 467.098C321.867 464.721 322.109 462.403 322.259 460.055C323.794 432.297 324.816 404.961 330.266 377.595C335.565 350.863 343.513 324.4 352.333 298.901C358.626 280.685 366.483 259.883 362.659 240.405C360.221 228.033 352.996 215.9 346.915 205C340.382 193.2 332.675 180.796 333.247 166.767C333.548 158.759 336.648 151.113 340.322 143.947C343.663 137.384 347.455 129.677 352.484 124.198C353.869 122.694 355.495 121.459 357.272 120.374C360.824 118.207 364.918 116.702 368.651 115.227C382.258 109.869 394.271 101.199 406.161 92.7079C416.579 85.3037 427.147 77.8662 435.847 68.5039C444.999 58.6599 451.742 46.4961 453.158 32.95C453.759 26.8985 453.065 21.3896 449.664 16.331C445.691 10.37 438.375 11.9959 432.204 12.4481C423.925 13.0201 415.675 13.8322 407.457 14.9155C397.884 16.1206 387.498 18.9812 377.835 16.9917C353.821 12.09 333.051 0.00183105 308.109 0C307.629 0 307.149 0.0055542 306.664 0.0147705ZM208.069 426.786L201.205 426.607L208.611 419.743C209.695 418.719 210.778 417.726 211.893 416.733C213.729 415.017 215.143 414.866 216.228 416.311C216.228 416.34 216.257 416.372 216.257 416.401C216.558 416.792 216.8 417.304 217.04 417.907C217.793 419.954 218.575 421.969 219.36 424.169C219.448 424.44 219.568 424.71 219.661 424.981C220.441 427.059 220.864 428.233 220.864 428.233C216.228 427.749 212.103 427.45 208.069 426.786Z"/><path fill="#000" d="M38.8052 490.006C39.3275 490.528 39.5637 490.812 39.5637 490.812L39.1374 488.917C38.9473 489.295 38.8513 489.674 38.8052 490.006Z"/><path fill="#000" d="M300.612 232.849C327.467 280.475 281.797 388.312 281.797 388.312C282.008 408.875 283.663 427.66 284.656 436.089C286.553 452.378 289.565 468.843 293.057 484.619C294.502 491.181 296.248 497.744 301.033 502.864C303.442 505.482 305.913 507.981 310.067 507.68C315.395 507.289 320.723 507.348 326.051 507.11C327.647 507.047 329.303 506.807 330.838 506.355C342.188 503.194 344.176 488.081 339.237 479.985C335.233 473.42 328.941 469.869 321.657 467.097C321.867 464.72 322.109 462.402 322.259 460.055C323.794 432.296 324.816 404.961 330.266 377.595C335.565 350.863 343.513 324.4 352.333 298.9C358.626 280.685 366.483 259.882 362.659 240.405C360.221 228.032 352.996 215.9 346.915 205C340.382 193.2 332.675 180.796 333.247 166.767C333.548 158.759 336.648 151.113 340.322 143.947C343.663 137.384 347.455 129.677 352.484 124.198C353.869 122.694 355.495 121.459 357.272 120.374C356.617 120.119 355.849 119.994 354.972 119.994C336.148 120.001 269.543 177.759 300.612 232.849Z"/><path fill="#000" d="M123.081 375.277C127.839 398.97 159.238 428.563 146.776 458.187C136.69 482.271 116.819 502.412 116.819 502.502L116.638 502.592L118.956 502.382C118.897 502.172 118.868 501.93 118.807 501.719C120.041 500.937 121.306 500.184 122.54 499.401C143.705 485.702 166.102 473.149 186.152 457.857C187.477 456.864 188.351 456.591 189.885 456.953C202.137 459.904 214.392 462.823 226.674 465.713L226.886 465.743L231.04 466.435L220.864 428.233C216.228 427.749 212.103 427.45 208.069 426.786L201.205 426.607L208.612 419.743C209.695 418.719 210.778 417.726 211.893 416.733C213.729 415.017 215.143 414.866 216.228 416.311C207.377 394.665 187.176 350.499 167.156 343.396C162.134 341.608 157.275 340.786 152.722 340.786C133.119 340.788 119.246 356.051 123.081 375.277Z"/><path fill="#000" d="M151.35 87.7711C149.44 89.3583 148.37 91.2924 148.791 93.5514C149.333 96.2901 150.898 98.549 154.06 98.9107C157.071 99.2725 160.081 99.5419 163.091 99.8427C163.152 99.8741 163.211 99.8741 163.304 99.8741C170.558 100.596 177.754 100.717 184.979 99.4515C185.73 99.3315 186.454 99.2725 187.115 99.302C191.119 99.422 193.076 102.251 191.42 106.738C190.457 109.325 189.733 112.036 188.65 114.564C183.743 125.885 179.016 137.294 173.749 148.463C166.131 164.661 158.695 180.464 147.045 194.164C146.956 194.254 146.864 194.374 146.775 194.464L146.714 194.525C146.504 194.765 146.294 195.037 146.052 195.278L146.081 195.367C172.363 168.062 241.847 95.3562 226.221 78.861C222.733 75.1718 215.761 73.7323 207.393 73.7323C186.805 73.7323 157.765 82.4413 151.35 87.7711Z"/></g><path fill="#000" d="M79.424 662.092V678.59H52.268V764H31.828V678.59H4.672V662.092H79.424ZM169.528 721.806C169.528 724.726 169.333 727.354 168.944 729.69H109.814C110.3 735.53 112.344 740.105 115.946 743.414C119.547 746.723 123.976 748.378 129.232 748.378C136.824 748.378 142.226 745.117 145.438 738.596H167.484C165.148 746.383 160.67 752.807 154.052 757.868C147.433 762.832 139.306 765.314 129.67 765.314C121.883 765.314 114.875 763.611 108.646 760.204C102.514 756.7 97.6957 751.785 94.1917 745.458C90.785 739.131 89.0817 731.831 89.0817 723.558C89.0817 715.187 90.785 707.839 94.1917 701.512C97.5983 695.185 102.368 690.319 108.5 686.912C114.632 683.505 121.688 681.802 129.67 681.802C137.359 681.802 144.221 683.457 150.256 686.766C156.388 690.075 161.108 694.796 164.418 700.928C167.824 706.963 169.528 713.922 169.528 721.806ZM148.358 715.966C148.26 710.71 146.362 706.525 142.664 703.41C138.965 700.198 134.439 698.592 129.086 698.592C124.024 698.592 119.742 700.149 116.238 703.264C112.831 706.281 110.738 710.515 109.96 715.966H148.358ZM215.399 765.314C208.78 765.314 202.843 764.146 197.587 761.81C192.331 759.377 188.146 756.116 185.031 752.028C182.014 747.94 180.359 743.414 180.067 738.45H200.653C201.042 741.565 202.551 744.144 205.179 746.188C207.904 748.232 211.262 749.254 215.253 749.254C219.146 749.254 222.164 748.475 224.305 746.918C226.544 745.361 227.663 743.365 227.663 740.932C227.663 738.304 226.3 736.357 223.575 735.092C220.947 733.729 216.713 732.269 210.873 730.712C204.838 729.252 199.874 727.743 195.981 726.186C192.185 724.629 188.876 722.244 186.053 719.032C183.328 715.82 181.965 711.489 181.965 706.038C181.965 701.561 183.23 697.473 185.761 693.774C188.389 690.075 192.088 687.155 196.857 685.014C201.724 682.873 207.418 681.802 213.939 681.802C223.575 681.802 231.264 684.235 237.007 689.102C242.75 693.871 245.913 700.344 246.497 708.52H226.933C226.641 705.308 225.278 702.777 222.845 700.928C220.509 698.981 217.346 698.008 213.355 698.008C209.656 698.008 206.785 698.689 204.741 700.052C202.794 701.415 201.821 703.313 201.821 705.746C201.821 708.471 203.184 710.564 205.909 712.024C208.634 713.387 212.868 714.798 218.611 716.258C224.451 717.718 229.269 719.227 233.065 720.784C236.861 722.341 240.122 724.775 242.847 728.084C245.67 731.296 247.13 735.579 247.227 740.932C247.227 745.604 245.913 749.789 243.285 753.488C240.754 757.187 237.056 760.107 232.189 762.248C227.42 764.292 221.823 765.314 215.399 765.314ZM287.804 699.906V739.034C287.804 741.759 288.436 743.755 289.702 745.02C291.064 746.188 293.303 746.772 296.418 746.772H305.908V764H293.06C275.832 764 267.218 755.629 267.218 738.888V699.906H257.582V683.116H267.218V663.114H287.804V683.116H305.908V699.906H287.804ZM315.353 723.266C315.353 715.09 316.959 707.839 320.171 701.512C323.48 695.185 327.909 690.319 333.457 686.912C339.102 683.505 345.38 681.802 352.291 681.802C358.326 681.802 363.582 683.019 368.059 685.452C372.634 687.885 376.284 690.951 379.009 694.65V683.116H399.595V764H379.009V752.174C376.381 755.97 372.731 759.133 368.059 761.664C363.484 764.097 358.18 765.314 352.145 765.314C345.332 765.314 339.102 763.562 333.457 760.058C327.909 756.554 323.48 751.639 320.171 745.312C316.959 738.888 315.353 731.539 315.353 723.266ZM379.009 723.558C379.009 718.594 378.036 714.36 376.089 710.856C374.142 707.255 371.514 704.529 368.205 702.68C364.896 700.733 361.343 699.76 357.547 699.76C353.751 699.76 350.247 700.685 347.035 702.534C343.823 704.383 341.195 707.109 339.151 710.71C337.204 714.214 336.231 718.399 336.231 723.266C336.231 728.133 337.204 732.415 339.151 736.114C341.195 739.715 343.823 742.489 347.035 744.436C350.344 746.383 353.848 747.356 357.547 747.356C361.343 747.356 364.896 746.431 368.205 744.582C371.514 742.635 374.142 739.91 376.089 736.406C378.036 732.805 379.009 728.522 379.009 723.558ZM495.916 683.116V764H475.33V753.78C472.702 757.284 469.247 760.058 464.964 762.102C460.779 764.049 456.204 765.022 451.24 765.022C444.914 765.022 439.317 763.708 434.45 761.08C429.584 758.355 425.739 754.413 422.916 749.254C420.191 743.998 418.828 737.769 418.828 730.566V683.116H439.268V727.646C439.268 734.07 440.874 739.034 444.086 742.538C447.298 745.945 451.678 747.648 457.226 747.648C462.872 747.648 467.3 745.945 470.512 742.538C473.724 739.034 475.33 734.07 475.33 727.646V683.116H495.916ZM547.036 765.314C540.417 765.314 534.48 764.146 529.224 761.81C523.968 759.377 519.782 756.116 516.668 752.028C513.65 747.94 511.996 743.414 511.704 738.45H532.29C532.679 741.565 534.188 744.144 536.816 746.188C539.541 748.232 542.899 749.254 546.89 749.254C550.783 749.254 553.8 748.475 555.942 746.918C558.18 745.361 559.3 743.365 559.3 740.932C559.3 738.304 557.937 736.357 555.212 735.092C552.584 733.729 548.35 732.269 542.51 730.712C536.475 729.252 531.511 727.743 527.618 726.186C523.822 724.629 520.512 722.244 517.69 719.032C514.964 715.82 513.602 711.489 513.602 706.038C513.602 701.561 514.867 697.473 517.398 693.774C520.026 690.075 523.724 687.155 528.494 685.014C533.36 682.873 539.054 681.802 545.576 681.802C555.212 681.802 562.901 684.235 568.644 689.102C574.386 693.871 577.55 700.344 578.134 708.52H558.57C558.278 705.308 556.915 702.777 554.482 700.928C552.146 698.981 548.982 698.008 544.992 698.008C541.293 698.008 538.422 698.689 536.378 700.052C534.431 701.415 533.458 703.313 533.458 705.746C533.458 708.471 534.82 710.564 537.546 712.024C540.271 713.387 544.505 714.798 550.248 716.258C556.088 717.718 560.906 719.227 564.702 720.784C568.498 722.341 571.758 724.775 574.484 728.084C577.306 731.296 578.766 735.579 578.864 740.932C578.864 745.604 577.55 749.789 574.922 753.488C572.391 757.187 568.692 760.107 563.826 762.248C559.056 764.292 553.46 765.314 547.036 765.314ZM626.594 765.314C619.976 765.314 614.038 764.146 608.782 761.81C603.526 759.377 599.341 756.116 596.226 752.028C593.209 747.94 591.554 743.414 591.262 738.45H611.848C612.238 741.565 613.746 744.144 616.374 746.188C619.1 748.232 622.458 749.254 626.448 749.254C630.342 749.254 633.359 748.475 635.5 746.918C637.739 745.361 638.858 743.365 638.858 740.932C638.858 738.304 637.496 736.357 634.77 735.092C632.142 733.729 627.908 732.269 622.068 730.712C616.034 729.252 611.07 727.743 607.176 726.186C603.38 724.629 600.071 722.244 597.248 719.032C594.523 715.82 593.16 711.489 593.16 706.038C593.16 701.561 594.426 697.473 596.956 693.774C599.584 690.075 603.283 687.155 608.052 685.014C612.919 682.873 618.613 681.802 625.134 681.802C634.77 681.802 642.46 684.235 648.202 689.102C653.945 693.871 657.108 700.344 657.692 708.52H638.128C637.836 705.308 636.474 702.777 634.04 700.928C631.704 698.981 628.541 698.008 624.55 698.008C620.852 698.008 617.98 698.689 615.936 700.052C613.99 701.415 613.016 703.313 613.016 705.746C613.016 708.471 614.379 710.564 617.104 712.024C619.83 713.387 624.064 714.798 629.806 716.258C635.646 717.718 640.464 719.227 644.26 720.784C648.056 722.341 651.317 724.775 654.042 728.084C656.865 731.296 658.325 735.579 658.422 740.932C658.422 745.604 657.108 749.789 654.48 753.488C651.95 757.187 648.251 760.107 643.384 762.248C638.615 764.292 633.018 765.314 626.594 765.314ZM750.391 721.806C750.391 724.726 750.196 727.354 749.807 729.69H690.677C691.164 735.53 693.208 740.105 696.809 743.414C700.41 746.723 704.839 748.378 710.095 748.378C717.687 748.378 723.089 745.117 726.301 738.596H748.347C746.011 746.383 741.534 752.807 734.915 757.868C728.296 762.832 720.169 765.314 710.533 765.314C702.746 765.314 695.738 763.611 689.509 760.204C683.377 756.7 678.559 751.785 675.055 745.458C671.648 739.131 669.945 731.831 669.945 723.558C669.945 715.187 671.648 707.839 675.055 701.512C678.462 695.185 683.231 690.319 689.363 686.912C695.495 683.505 702.552 681.802 710.533 681.802C718.222 681.802 725.084 683.457 731.119 686.766C737.251 690.075 741.972 694.796 745.281 700.928C748.688 706.963 750.391 713.922 750.391 721.806ZM729.221 715.966C729.124 710.71 727.226 706.525 723.527 703.41C719.828 700.198 715.302 698.592 709.949 698.592C704.888 698.592 700.605 700.149 697.101 703.264C693.694 706.281 691.602 710.515 690.823 715.966H729.221ZM785.75 695.672C788.378 691.389 791.785 688.031 795.97 685.598C800.253 683.165 805.12 681.948 810.57 681.948V703.41H805.168C798.744 703.41 793.878 704.919 790.568 707.936C787.356 710.953 785.75 716.209 785.75 723.704V764H765.31V683.116H785.75V695.672ZM858.064 745.166L878.504 683.116H900.258L870.328 764H845.508L815.724 683.116H837.624L858.064 745.166ZM986.928 721.806C986.928 724.726 986.733 727.354 986.344 729.69H927.214C927.701 735.53 929.745 740.105 933.346 743.414C936.947 746.723 941.376 748.378 946.632 748.378C954.224 748.378 959.626 745.117 962.838 738.596H984.884C982.548 746.383 978.071 752.807 971.452 757.868C964.833 762.832 956.706 765.314 947.07 765.314C939.283 765.314 932.275 763.611 926.046 760.204C919.914 756.7 915.096 751.785 911.592 745.458C908.185 739.131 906.482 731.831 906.482 723.558C906.482 715.187 908.185 707.839 911.592 701.512C914.999 695.185 919.768 690.319 925.9 686.912C932.032 683.505 939.089 681.802 947.07 681.802C954.759 681.802 961.621 683.457 967.656 686.766C973.788 690.075 978.509 694.796 981.818 700.928C985.225 706.963 986.928 713.922 986.928 721.806ZM965.758 715.966C965.661 710.71 963.763 706.525 960.064 703.41C956.365 700.198 951.839 698.592 946.486 698.592C941.425 698.592 937.142 700.149 933.638 703.264C930.231 706.281 928.139 710.515 927.36 715.966H965.758ZM1022.29 695.672C1024.92 691.389 1028.32 688.031 1032.51 685.598C1036.79 683.165 1041.66 681.948 1047.11 681.948V703.41H1041.71C1035.28 703.41 1030.41 704.919 1027.11 707.936C1023.89 710.953 1022.29 716.209 1022.29 723.704V764H1001.85V683.116H1022.29V695.672ZM1071.24 673.48C1067.64 673.48 1064.62 672.361 1062.19 670.122C1059.85 667.786 1058.68 664.915 1058.68 661.508C1058.68 658.101 1059.85 655.279 1062.19 653.04C1064.62 650.704 1067.64 649.536 1071.24 649.536C1074.84 649.536 1077.81 650.704 1080.15 653.04C1082.58 655.279 1083.8 658.101 1083.8 661.508C1083.8 664.915 1082.58 667.786 1080.15 670.122C1077.81 672.361 1074.84 673.48 1071.24 673.48ZM1081.31 683.116V764H1060.87V683.116H1081.31Z"/></svg>